<?xml version="1.0" encoding="utf-8"?>
<!-- Generator: Adobe Illustrator 16.0.0, SVG Export Plug-In . SVG Version: 6.00 Build 0)  -->
<!DOCTYPE svg PUBLIC "-//W3C//DTD SVG 1.1//EN" "http://www.w3.org/Graphics/SVG/1.1/DTD/svg11.dtd">
<svg version="1.1" id="Layer_1" xmlns="http://www.w3.org/2000/svg" xmlns:xlink="http://www.w3.org/1999/xlink" x="0px" y="0px"
	 width="12px" height="12px" viewBox="0 0 12 12" enable-background="new 0 0 12 12" xml:space="preserve">
<path fill="#FFFFFF" d="M1.001,6.501h1.021c0.276,0,0.5-0.224,0.5-0.5V4.434H4.99v4.654c0,0.276,0.225,0.5,0.5,0.5H11
	c0.277,0,0.5-0.224,0.5-0.5V6c0-0.276-0.223-0.5-0.5-0.5H9.98c-0.277,0-0.5,0.224-0.5,0.5v1.566H7.012V2.913
	c0-0.275-0.223-0.5-0.498-0.5L6.002,2.412L1.001,2.413c-0.276,0-0.5,0.225-0.5,0.5v3.088C0.501,6.277,0.725,6.501,1.001,6.501z"/>
</svg>
