<?xml version="1.0" encoding="utf-8"?>
<!-- Generator: Adobe Illustrator 16.0.0, SVG Export Plug-In . SVG Version: 6.00 Build 0)  -->
<!DOCTYPE svg PUBLIC "-//W3C//DTD SVG 1.1//EN" "http://www.w3.org/Graphics/SVG/1.1/DTD/svg11.dtd">
<svg version="1.1" id="Layer_1" xmlns="http://www.w3.org/2000/svg" xmlns:xlink="http://www.w3.org/1999/xlink" x="0px" y="0px"
	 width="12px" height="12px" viewBox="0 0 12 12" enable-background="new 0 0 12 12" xml:space="preserve">
<path fill="#FFFFFF" d="M11.499,8.198c0-0.117-0.041-0.23-0.115-0.32l-5-6.007c-0.189-0.229-0.579-0.229-0.769,0L0.616,7.879
	C0.542,7.968,0.501,8.081,0.501,8.198L0.5,9.799c0,0.211,0.132,0.398,0.33,0.47c0.196,0.073,0.419,0.013,0.554-0.15L6,4.569
	l4.616,5.549c0.096,0.117,0.238,0.181,0.384,0.181c0.058,0,0.114-0.01,0.17-0.03c0.198-0.071,0.33-0.259,0.33-0.47L11.499,8.198z"/>
</svg>
