<?xml version="1.0" encoding="utf-8"?>
<!-- Generator: Adobe Illustrator 16.0.0, SVG Export Plug-In . SVG Version: 6.00 Build 0)  -->
<!DOCTYPE svg PUBLIC "-//W3C//DTD SVG 1.1//EN" "http://www.w3.org/Graphics/SVG/1.1/DTD/svg11.dtd">
<svg version="1.1" id="Layer_1" xmlns="http://www.w3.org/2000/svg" xmlns:xlink="http://www.w3.org/1999/xlink" x="0px" y="0px"
	 width="12px" height="12px" viewBox="0 0 12 12" enable-background="new 0 0 12 12" xml:space="preserve">
<path fill="#FFFFFF" d="M1.011,6.5h1c0.275,0,0.5-0.224,0.5-0.5c0-1.089,0.653-1.577,1.302-1.577c0.584,0,1.188,0.59,1.188,1.578
	c0,2.105,1.37,3.576,3.332,3.576c1.977,0,3.156-1.337,3.156-3.576c0-0.276-0.224-0.5-0.5-0.5h-1c-0.276,0-0.5,0.224-0.5,0.5
	c0,1.576-0.752,1.576-1.156,1.576c-1.102,0-1.332-0.857-1.332-1.576c0-2.007-1.4-3.578-3.188-3.578C2.171,2.423,0.511,3.651,0.511,6
	C0.511,6.276,0.733,6.5,1.011,6.5z"/>
</svg>
