<?xml version="1.0" encoding="utf-8"?>
<!-- Generator: Adobe Illustrator 16.0.0, SVG Export Plug-In . SVG Version: 6.00 Build 0)  -->
<!DOCTYPE svg PUBLIC "-//W3C//DTD SVG 1.1//EN" "http://www.w3.org/Graphics/SVG/1.1/DTD/svg11.dtd">
<svg version="1.1" id="Layer_1" xmlns="http://www.w3.org/2000/svg" xmlns:xlink="http://www.w3.org/1999/xlink" x="0px" y="0px"
	 width="12px" height="12px" viewBox="0 0 12 12" enable-background="new 0 0 12 12" xml:space="preserve">
<path fill="#FFFFFF" d="M1.001,9.589h1.021c0.276,0,0.5-0.224,0.5-0.5V4.93l8.235,4.596C10.832,9.568,10.916,9.589,11,9.589
	c0.088,0,0.176-0.022,0.254-0.069c0.153-0.09,0.247-0.254,0.246-0.432l-0.002-1.187c0-0.181-0.099-0.349-0.257-0.437L2.267,2.473
	c-0.089-0.049-0.19-0.07-0.292-0.059H1.001c-0.276,0-0.5,0.224-0.5,0.5v6.175C0.501,9.365,0.725,9.589,1.001,9.589z"/>
</svg>
